<svg width="227" height="59" viewBox="0 0 227 59" fill="none" xmlns="http://www.w3.org/2000/svg">
<path d="M23.072 45V40.744C22.88 41.1707 22.3893 41.7893 21.6 42.6C20.832 43.4107 19.808 44.1467 18.528 44.808C17.248 45.448 15.7547 45.768 14.048 45.768C11.488 45.768 9.248 45.1493 7.328 43.912C5.408 42.6533 3.91467 40.9787 2.848 38.888C1.78133 36.776 1.248 34.44 1.248 31.88C1.248 29.32 1.78133 26.9947 2.848 24.904C3.91467 22.792 5.408 21.1067 7.328 19.848C9.248 18.5893 11.488 17.96 14.048 17.96C15.6907 17.96 17.1307 18.2267 18.368 18.76C19.6053 19.272 20.608 19.8907 21.376 20.616C22.144 21.32 22.6773 21.9707 22.976 22.568V18.728H32.64V45H23.072ZM10.784 31.88C10.784 33.0747 11.0613 34.152 11.616 35.112C12.1707 36.0507 12.9067 36.7867 13.824 37.32C14.7627 37.8533 15.7973 38.12 16.928 38.12C18.1013 38.12 19.136 37.8533 20.032 37.32C20.928 36.7867 21.632 36.0507 22.144 35.112C22.6773 34.152 22.944 33.0747 22.944 31.88C22.944 30.6853 22.6773 29.6187 22.144 28.68C21.632 27.72 20.928 26.9733 20.032 26.44C19.136 25.8853 18.1013 25.608 16.928 25.608C15.7973 25.608 14.7627 25.8853 13.824 26.44C12.9067 26.9733 12.1707 27.72 11.616 28.68C11.0613 29.6187 10.784 30.6853 10.784 31.88ZM71.741 17.96C73.725 17.96 75.4743 18.376 76.989 19.208C78.5037 20.0187 79.6877 21.2773 80.541 22.984C81.4157 24.6907 81.853 26.888 81.853 29.576V45H72.285V31.048C72.285 29.2133 72.0077 27.7307 71.453 26.6C70.8983 25.4693 69.7997 24.904 68.157 24.904C67.1757 24.904 66.3117 25.16 65.565 25.672C64.8183 26.184 64.2423 26.8987 63.837 27.816C63.4317 28.712 63.229 29.7893 63.229 31.048V45H54.301V31.048C54.301 29.2133 53.9917 27.7307 53.373 26.6C52.7757 25.4693 51.709 24.904 50.173 24.904C49.1917 24.904 48.3277 25.16 47.581 25.672C46.8343 26.1627 46.2583 26.8667 45.853 27.784C45.469 28.68 45.277 29.768 45.277 31.048V45H35.613V18.728H45.277V22.472C45.533 21.8107 46.0877 21.1387 46.941 20.456C47.8157 19.752 48.893 19.1653 50.173 18.696C51.453 18.2053 52.8077 17.96 54.237 17.96C55.7943 17.96 57.0957 18.1947 58.141 18.664C59.1863 19.112 60.0397 19.72 60.701 20.488C61.3837 21.256 61.9277 22.088 62.333 22.984C62.6317 22.216 63.2183 21.448 64.093 20.68C64.989 19.8907 66.0983 19.24 67.421 18.728C68.765 18.216 70.205 17.96 71.741 17.96ZM93.856 58.312H84.224V18.728H93.952V22.568C94.2507 21.9707 94.816 21.32 95.648 20.616C96.5013 19.8907 97.5787 19.272 98.88 18.76C100.203 18.2267 101.696 17.96 103.36 17.96C105.92 17.96 108.107 18.5893 109.92 19.848C111.755 21.1067 113.163 22.792 114.144 24.904C115.125 26.9947 115.616 29.32 115.616 31.88C115.616 34.44 115.093 36.776 114.048 38.888C113.003 40.9787 111.531 42.6533 109.632 43.912C107.755 45.1493 105.536 45.768 102.976 45.768C101.141 45.768 99.5733 45.448 98.272 44.808C96.992 44.1467 95.9787 43.4213 95.232 42.632C94.5067 41.8213 94.048 41.192 93.856 40.744V58.312ZM106.112 31.88C106.112 30.6853 105.845 29.6187 105.312 28.68C104.779 27.72 104.053 26.9733 103.136 26.44C102.24 25.8853 101.227 25.608 100.096 25.608C98.9227 25.608 97.8667 25.8853 96.928 26.44C96.0107 26.9733 95.2853 27.72 94.752 28.68C94.2187 29.6187 93.952 30.6853 93.952 31.88C93.952 33.0747 94.2187 34.152 94.752 35.112C95.2853 36.0507 96.0107 36.7867 96.928 37.32C97.8667 37.8533 98.9227 38.12 100.096 38.12C101.227 38.12 102.24 37.8533 103.136 37.32C104.053 36.7867 104.779 36.0507 105.312 35.112C105.845 34.152 106.112 33.0747 106.112 31.88ZM125.082 33.928C125.146 34.8667 125.445 35.6987 125.978 36.424C126.511 37.1493 127.247 37.7253 128.186 38.152C129.146 38.5573 130.277 38.76 131.578 38.76C132.815 38.76 133.925 38.632 134.906 38.376C135.909 38.12 136.773 37.8 137.498 37.416C138.245 37.032 138.821 36.6373 139.226 36.232L143.002 42.248C142.469 42.824 141.711 43.3893 140.73 43.944C139.77 44.4773 138.501 44.9147 136.922 45.256C135.343 45.5973 133.349 45.768 130.938 45.768C128.037 45.768 125.455 45.224 123.194 44.136C120.933 43.048 119.151 41.448 117.85 39.336C116.549 37.224 115.898 34.6427 115.898 31.592C115.898 29.032 116.453 26.728 117.562 24.68C118.693 22.6107 120.325 20.9787 122.458 19.784C124.591 18.568 127.162 17.96 130.17 17.96C133.029 17.96 135.503 18.4827 137.594 19.528C139.706 20.5733 141.327 22.1307 142.458 24.2C143.61 26.248 144.186 28.808 144.186 31.88C144.186 32.0507 144.175 32.392 144.154 32.904C144.154 33.416 144.133 33.7573 144.09 33.928H125.082ZM135.034 28.84C135.013 28.1573 134.831 27.4853 134.49 26.824C134.149 26.1413 133.637 25.5867 132.954 25.16C132.271 24.712 131.397 24.488 130.33 24.488C129.263 24.488 128.357 24.7013 127.61 25.128C126.885 25.5333 126.33 26.0667 125.946 26.728C125.562 27.3893 125.349 28.0933 125.306 28.84H135.034ZM154.909 45H145.181V18.728H154.909V22.792H154.749C154.92 22.3013 155.336 21.6827 155.997 20.936C156.658 20.168 157.586 19.4853 158.781 18.888C159.976 18.2693 161.437 17.96 163.165 17.96C164.381 17.96 165.501 18.152 166.525 18.536C167.549 18.8987 168.296 19.2507 168.765 19.592L164.989 27.496C164.69 27.1333 164.157 26.76 163.389 26.376C162.642 25.9707 161.704 25.768 160.573 25.768C159.272 25.768 158.194 26.0987 157.341 26.76C156.509 27.4213 155.89 28.2213 155.485 29.16C155.101 30.0987 154.909 30.984 154.909 31.816V45ZM179.527 17.96C181.255 17.96 182.833 18.1093 184.263 18.408C185.692 18.6853 186.887 19.0053 187.847 19.368C188.828 19.7307 189.457 20.0293 189.735 20.264L186.567 25.992C186.161 25.6933 185.404 25.3093 184.295 24.84C183.207 24.3707 181.991 24.136 180.647 24.136C179.623 24.136 178.759 24.296 178.055 24.616C177.351 24.9147 176.999 25.3947 176.999 26.056C176.999 26.7173 177.383 27.2507 178.151 27.656C178.94 28.04 180.071 28.3813 181.543 28.68C182.823 28.936 184.124 29.3413 185.447 29.896C186.769 30.4507 187.868 31.272 188.743 32.36C189.639 33.4267 190.087 34.856 190.087 36.648C190.087 38.4827 189.692 39.9973 188.903 41.192C188.113 42.3867 187.068 43.3147 185.767 43.976C184.465 44.6373 183.057 45.096 181.543 45.352C180.028 45.6293 178.556 45.768 177.127 45.768C175.121 45.768 173.372 45.5867 171.879 45.224C170.407 44.8613 169.212 44.4453 168.295 43.976C167.377 43.5067 166.737 43.1333 166.375 42.856L169.511 36.456C170.065 36.9253 170.972 37.4587 172.231 38.056C173.489 38.632 174.823 38.92 176.231 38.92C177.596 38.92 178.652 38.7173 179.399 38.312C180.145 37.9067 180.519 37.3733 180.519 36.712C180.519 36.1787 180.337 35.752 179.975 35.432C179.612 35.112 179.1 34.8347 178.439 34.6C177.777 34.3653 176.977 34.152 176.039 33.96C175.185 33.7893 174.279 33.5227 173.319 33.16C172.359 32.7973 171.452 32.3067 170.599 31.688C169.745 31.048 169.052 30.248 168.519 29.288C167.985 28.328 167.719 27.1653 167.719 25.8C167.719 24.0507 168.284 22.6 169.415 21.448C170.545 20.296 172.007 19.432 173.799 18.856C175.591 18.2587 177.5 17.96 179.527 17.96Z" fill="black"/>
<path d="M191.384 38.048C191.384 36.912 191.584 35.904 191.984 35.024C192.384 34.144 192.904 33.376 193.544 32.72C194.184 32.064 194.856 31.512 195.56 31.064C196.28 30.6 196.952 30.232 197.576 29.96C198.216 29.688 198.728 29.504 199.112 29.408C198.696 29.232 198.28 28.968 197.864 28.616C197.448 28.248 197.072 27.8 196.736 27.272C196.4 26.744 196.128 26.136 195.92 25.448C195.712 24.744 195.608 23.968 195.608 23.12C195.608 21.68 196.008 20.328 196.808 19.064C197.608 17.784 198.824 16.744 200.456 15.944C202.088 15.144 204.144 14.744 206.624 14.744C208.976 14.744 210.904 15.12 212.408 15.872C213.912 16.624 215.024 17.64 215.744 18.92C216.48 20.2 216.848 21.648 216.848 23.264C216.848 24.096 216.656 24.904 216.272 25.688C215.904 26.456 215.416 27.176 214.808 27.848C214.2 28.52 213.544 29.128 212.84 29.672C212.152 30.2 211.48 30.64 210.824 30.992L213.8 33.992C214.216 33.736 214.832 33.224 215.648 32.456C216.464 31.672 217.36 30.672 218.336 29.456L224.456 35.096C224.152 35.496 223.752 35.968 223.256 36.512C222.76 37.056 222.216 37.616 221.624 38.192C221.048 38.752 220.456 39.256 219.848 39.704L226.832 47H215.24L212.768 44.432C211.952 44.992 211.064 45.512 210.104 45.992C209.16 46.472 208.08 46.856 206.864 47.144C205.664 47.432 204.256 47.576 202.64 47.576C200.768 47.576 198.968 47.232 197.24 46.544C195.528 45.856 194.12 44.808 193.016 43.4C191.928 41.992 191.384 40.208 191.384 38.048ZM203.552 34.856C203.424 34.936 203.288 35.04 203.144 35.168C203.016 35.296 202.88 35.432 202.736 35.576C202.608 35.72 202.496 35.88 202.4 36.056C202.304 36.232 202.224 36.408 202.16 36.584C202.096 36.76 202.064 36.944 202.064 37.136C202.064 37.568 202.16 37.912 202.352 38.168C202.544 38.424 202.824 38.608 203.192 38.72C203.56 38.832 203.992 38.888 204.488 38.888C204.776 38.888 205.064 38.856 205.352 38.792C205.64 38.712 205.912 38.624 206.168 38.528C206.424 38.416 206.632 38.312 206.792 38.216L203.552 34.856ZM206.6 21.656C206.184 21.656 205.832 21.728 205.544 21.872C205.256 22.016 205.04 22.208 204.896 22.448C204.768 22.688 204.704 22.952 204.704 23.24C204.704 23.544 204.768 23.856 204.896 24.176C205.024 24.48 205.176 24.768 205.352 25.04C205.544 25.296 205.712 25.512 205.856 25.688C206.016 25.864 206.12 25.976 206.168 26.024C206.248 25.976 206.408 25.864 206.648 25.688C206.888 25.512 207.144 25.296 207.416 25.04C207.688 24.768 207.92 24.48 208.112 24.176C208.32 23.856 208.424 23.544 208.424 23.24C208.424 22.808 208.272 22.44 207.968 22.136C207.68 21.816 207.224 21.656 206.6 21.656Z" fill="black"/>
</svg>
